# xmcd
#
# Track frame offsets:
#	150
#	46545
#	74510
#	120546
#	189552
#	209627
#	247123
#	271557
#	300210
#	325252
#	331805
#
# Disc length: 4640 seconds
#
# Revision: 1
# Processed by: cddbd v1.5.1PL0 Copyright (c) Steve Scherf et al.
# Submitted via: audiograbber 1.82.01
#
DISCID=95121e0b
DTITLE=Johnny Winter  - 1987-07-27 - Starlight Theater - Kansas City, MO
DYEAR=1900
DGENRE=
TTITLE0=Johnny Winter - Succotash
TTITLE1=Johnny Winter - Sound The Bell (Feel So Bad)
TTITLE2=Johnny Winter - Don't Take Advantage Of Me
TTITLE3=Johnny Winter - Third Degree
TTITLE4=Johnny Winter - Serious As A Heart Attack
TTITLE5=Johnny Winter - Mojo Boogie
TTITLE6=Johnny Winter - Shake Your Moneymaker
TTITLE7=Johnny Winter - Johnny B. Goode
TTITLE8=Johnny Winter - Boothill
TTITLE9=Johnny Winter - Wildwood Flower
TTITLE10=Johnny Winter - Thirty Days (in a country, swing beat)
EXTD=
EXTT0=
EXTT1=
EXTT2=
EXTT3=
EXTT4=
EXTT5=
EXTT6=
EXTT7=
EXTT8=
EXTT9=
EXTT10=
PLAYORDER=
